<svg width="437" height="115" viewBox="0 0 437 115" fill="none" xmlns="http://www.w3.org/2000/svg">
<path d="M427.219 30.3359H436.531V99.7439H427.219V30.3359Z" fill="black"/>
<path d="M352.994 99.7441L383.33 27.4561H383.906L414.146 99.7441H403.49L380.834 42.0481L387.458 37.7281L362.114 99.7441H352.994ZM370.754 73.4401H396.578L399.65 81.5041H368.066L370.754 73.4401ZM378.146 109.536C378.146 108.128 378.69 106.944 379.778 105.984C380.93 105.024 382.178 104.544 383.522 104.544C384.866 104.544 386.05 105.024 387.074 105.984C388.162 106.944 388.706 108.128 388.706 109.536C388.706 111.008 388.162 112.192 387.074 113.088C386.05 114.048 384.866 114.528 383.522 114.528C382.178 114.528 380.93 114.048 379.778 113.088C378.69 112.128 378.146 110.944 378.146 109.536Z" fill="black"/>
<path d="M270.938 99.7439V28.1279H271.033L307.417 79.7759L303.482 79.0079L339.77 28.1279H339.961V99.7439H330.745V49.2479L331.322 53.9519L305.113 91.0079H304.922L278.329 53.9519L279.961 49.6319V99.7439H270.938Z" fill="black"/>
<path d="M151.594 99.7439V28.1279H151.69L188.074 79.7759L184.138 79.0079L220.426 28.1279H220.618V99.7439H211.402V49.2479L211.978 53.9519L185.77 91.0079H185.578L158.986 53.9519L160.618 49.6319V99.7439H151.594Z" fill="black"/>
<path d="M88.9688 30.336H134.089V39.264H98.2808V60.384H130.249V69.312H98.2808V90.816H135.433V99.744H88.9688V30.336ZM118.345 23.04L109.417 13.632L112.009 13.056L102.889 23.04H94.6328L110.473 6.624H110.569L126.601 23.04H118.345ZM81.7688 0H91.6568L98.6648 12.864H92.9048L81.7688 0Z" fill="black"/>
<path d="M0 99.7439V28.1279H0.0959997L36.48 79.7759L32.544 79.0079L68.832 28.1279H69.024V99.7439H59.808V49.2479L60.384 53.9519L34.176 91.0079H33.984L7.392 53.9519L9.024 49.6319V99.7439H0Z" fill="black"/>
</svg>
